#!OML:ASF F:\VICON\USERDATA\INSTALL\rory3\rory3.ASF
:FULLY-SPECIFIED
:DEGREES
584
root 4.18134 18.0204 0.0505703 176.403 220.665 185.016
lowerback 10.9404 1.82331 -4.6948
upperback 1.27523 1.8062 -0.518363
thorax -4.93095 0.966574 1.82974
lowerneck -14.2902 -7.01299 -13.068
upperneck 33.3883 -10.734 10.3114
head 15.447 -5.08267 4.67004
rclavicle -5.00813e-014 3.97569e-015
rhumerus -41.9123 26.9892 -99.7454
rradius 99.0327
rwrist -9.43178
rhand -21.3938 15.2511
rfingers 7.12502
rthumb 4.99414 -14.6701
lclavicle -5.00813e-014 3.97569e-015
lhumerus -41.9885 -31.912 97.3751
lradius 98.4275
lwrist -8.84844
lhand -22.5929 17.6422
lfingers 7.12502
lthumb 3.83623 47.5875
rfemur -8.90526 -2.76005 13.1349
rtibia 59.5286
rfoot 2.17106 6.81267
rtoes 1.84795
lfemur -6.81958 3.41641 -25.375
ltibia 16.6323
lfoot -6.28675 -5.4248
ltoes -4.6448
585
root 4.13142 18.0229 0.132731 176.179 221.181 185.159
lowerback 11.0285 1.87831 -4.80307
upperback 1.36437 1.85742 -0.59508
thorax -4.89072 0.990012 1.8016
lowerneck -14.4402 -6.90958 -12.877
upperneck 33.5145 -10.5928 10.202
head 15.4955 -5.00973 4.61829
rclavicle 1.78533e-014 -3.27995e-015
rhumerus -41.5662 26.9663 -99.6152
rradius 98.8825
rwrist -8.87516
rhand -21.2011 15.3842
rfingers 7.12502
rthumb 5.1802 -14.5325
lclavicle 1.78533e-014 -3.27995e-015
lhumerus -41.6473 -32.2286 97.0023
lradius 98.403
lwrist -8.89839
lhand -22.3957 18.0526
lfingers 7.12502
lthumb 4.02663 47.9943
rfemur -9.73883 -2.96366 12.9761
rtibia 60.3345
rfoot 1.28465 4.56934
rtoes 3.11245
lfemur -6.2146 3.76625 -25.4987
ltibia 16.4743
lfoot -6.47632 -5.19601
ltoes -4.43654
586
root 4.08249 18.0249 0.226906 176.128 221.615 185.201
lowerback 10.902 1.88381 -4.69986
upperback 1.45898 1.88118 -0.691787
thorax -4.71592 0.993767 1.64407
lowerneck -14.7903 -6.85993 -12.6865
upperneck 33.7891 -10.5353 10.1102
head 15.6805 -4.965 4.55998
rclavicle -2.54941e-014 -2.78299e-015
rhumerus -41.2221 26.8733 -99.482
rradius 98.9059
rwrist -8.25093
rhand -20.9249 15.398
rfingers 7.12502
rthumb 5.4469 -14.512
lclavicle -2.54941e-014 -2.78299e-015
lhumerus -41.2537 -32.6089 96.589
lradius 98.3989
lwrist -8.79647
lhand -22.2179 18.1925
lfingers 7.12502
lthumb 4.19833 48.1309
rfemur -10.6603 -3.33663 12.906
rtibia 60.9855
rfoot 0.446907 2.5285
rtoes 3.06039
lfemur -5.76865 3.82921 -25.5839
ltibia 16.4381
lfoot -6.64475 -4.69623
ltoes -3.25985
587
root 4.03397 18.0249 0.302343 176.137 221.918 185.051
lowerback 11.0452 1.83041 -4.7106
upperback 1.50591 1.8061 -0.596927
thorax -4.74474 0.957146 1.75793
lowerneck -14.966 -6.7609 -12.7229
upperneck 33.9308 -10.3485 10.0521
head 15.7586 -4.89538 4.58026
rclavicle -4.06018e-014 2.26615e-014
rhumerus -40.8908 26.9485 -99.359
rradius 98.8369
rwrist -7.87962
rhand -20.7108 15.2527
rfingers 7.12502
rthumb 5.65359 -14.6519
lclavicle -4.06018e-014 2.26615e-014
lhumerus -40.9416 -32.7915 96.3445
lradius 98.3997
lwrist -8.69259
lhand -22.1587 18.3924
lfingers 7.12502
lthumb 4.25554 48.3297
rfemur -11.4853 -3.68696 13.1154
rtibia 61.4941
rfoot -0.154591 0.524811
rtoes 3.89164
lfemur -5.35011 4.13642 -25.4251
ltibia 16.4823
lfoot -6.83161 -4.64378
ltoes -1.70545
588
root 3.98801 18.029 0.387533 176.259 222.061 184.993
lowerback 10.9426 1.70604 -4.63359
upperback 1.53547 1.65885 -0.567787
thorax -4.64538 0.881284 1.77082
lowerneck -15.1161 -6.66653 -12.6331
upperneck 34.0801 -10.1662 9.8724
head 15.8165 -4.82754 4.52416
rclavicle -4.37575e-014 9.14409e-015
rhumerus -40.5482 27.0952 -99.313
rradius 98.7304
rwrist -7.71671
rhand -20.6895 15.1671
rfingers 7.12502
rthumb 5.67416 -14.7369
lclavicle -4.37575e-014 9.14409e-015
lhumerus -40.6381 -32.9602 96.0945
lradius 98.4092
lwrist -8.72638
lhand -22.0841 18.7962
lfingers 7.12502
lthumb 4.32756 48.732
rfemur -12.4384 -4.15958 13.1516
rtibia 61.8841
rfoot -1.046 -0.952836
rtoes 5.72612
lfemur -5.17364 3.81494 -25.4605
ltibia 16.6246
lfoot -7.01009 -4.13457
ltoes -1.78553
589
root 3.94572 18.0321 0.463947 176.374 221.907 185.013
lowerback 10.9341 1.53215 -4.56858
upperback 1.53206 1.43439 -0.607987
thorax -4.62666 0.768922 1.72651
lowerneck -15.2163 -6.60587 -12.5789
upperneck 34.2828 -10.0932 9.83168
head 15.9216 -4.79637 4.51788
rclavicle -7.69048e-015 -8.24956e-015
rhumerus -40.2893 27.0927 -99.2533
rradius 98.7514
rwrist -7.48825
rhand -20.979 15.3816
rfingers 7.12502
rthumb 5.39465 -14.5297
lclavicle -7.69048e-015 -8.24956e-015
lhumerus -40.2984 -33.2866 95.7953
lradius 98.3826
lwrist -8.71048
lhand -22.2018 19.1307
lfingers 7.12502
lthumb 4.21386 49.0688
rfemur -13.3913 -4.89012 13.164
rtibia 62.1634
rfoot -2.36558 -2.30559
rtoes 6.5053
lfemur -5.1498 3.43713 -25.567
ltibia 16.897
lfoot -7.06058 -3.79401
ltoes -2.12468
590
root 3.90148 18.0206 0.535048 176.459 221.961 185.016
lowerback 10.9399 1.41806 -4.57415
upperback 1.56216 1.28134 -0.630818
thorax -4.58788 0.691945 1.72921
lowerneck -15.2779 -6.52061 -12.5855
upperneck 34.3292 -9.99455 9.91693
head 15.9495 -4.74561 4.5779
rclavicle -4.78326e-015 -1.07344e-014
rhumerus -39.9883 27.1001 -99.2172
rradius 98.7461
rwrist -7.29863
rhand -21.2062 15.6185
rfingers 7.12502
rthumb 5.17529 -14.2983
lclavicle -4.78326e-015 -1.07344e-014
lhumerus -39.8571 -33.5985 95.3723
lradius 98.3994
lwrist -8.4403
lhand -22.2679 19.2912
lfingers 7.12502
lthumb 4.15008 49.2306
rfemur -14.353 -5.41739 13.2485
rtibia 62.3374
rfoot -2.92387 -3.89593
rtoes 7.78105
lfemur -5.08287 3.36301 -25.6217
ltibia 17.2696
lfoot -7.2564 -3.53395
ltoes -1.8693
591
root 3.85062 18.0044 0.608798 176.528 222.358 184.891
lowerback 10.8923 1.3931 -4.57588
upperback 1.68771 1.25612 -0.570163
thorax -4.42947 0.674482 1.79985
lowerneck -15.4332 -6.45055 -12.5021
upperneck 34.2396 -9.84029 9.81238
head 15.902 -4.67622 4.54015
rclavicle -4.0316e-014 3.57812e-015
rhumerus -39.5728 27.2297 -99.1044
rradius 98.7433
rwrist -7.34323
rhand -21.1257 15.6103
rfingers 7.12502
rthumb 5.25295 -14.3046
lclavicle -4.0316e-014 3.57812e-015
lhumerus -39.3155 -33.7423 94.9933
lradius 98.3842
lwrist -8.37503
lhand -22.0967 19.0437
lfingers 7.12502
lthumb 4.31544 48.9798
rfemur -15.2071 -5.55196 13.4842
rtibia 62.3675
rfoot -2.98583 -5.42871
rtoes 11.0982
lfemur -4.8956 3.64051 -25.532
ltibia 17.7012
lfoot -7.88513 -3.32005
ltoes -2.99214
592
root 3.80048 18.0013 0.685214 176.608 222.646 184.75
lowerback 10.8557 1.33226 -4.45083
upperback 1.81205 1.19497 -0.555294
thorax -4.27262 0.637094 1.75631
lowerneck -15.6182 -6.39203 -12.4686
upperneck 34.2478 -9.7396 9.81404
head 15.9313 -4.62394 4.55214
rclavicle -4.00303e-014 -2.5842e-015
rhumerus -39.107 27.2656 -99.0065
rradius 98.7405
rwrist -7.37162
rhand -21.1299 15.5077
rfingers 7.12502
rthumb 5.24888 -14.4073
lclavicle -4.00303e-014 -2.5842e-015
lhumerus -38.7699 -33.982 94.5877
lradius 98.3512
lwrist -8.45923
lhand -21.9254 18.6631
lfingers 7.12502
lthumb 4.48085 48.5957
rfemur -15.9791 -5.74733 13.7292
rtibia 62.2103
rfoot -4.90506 -5.82216
rtoes 9.40376
lfemur -4.82045 3.8657 -25.4498
ltibia 18.1969
lfoot -8.64633 -3.13527
ltoes -4.12447
593
root 3.75094 17.996 0.758669 176.65 222.841 184.728
lowerback 10.9483 1.26841 -4.35086
upperback 1.79242 1.11255 -0.625143
thorax -4.33606 0.59577 1.63759
lowerneck -15.5822 -6.31604 -12.3795
upperneck 34.2537 -9.67646 9.8496
head 15.9106 -4.58473 4.56559
rclavicle -6.2319e-014 1.18277e-014
rhumerus -38.9762 27.174 -99.0934
rradius 98.8101
rwrist -7.25849
rhand -21.2674 15.3716
rfingers 7.12502
rthumb 5.11621 -14.5466
lclavicle -6.2319e-014 1.18277e-014
lhumerus -38.3988 -34.4061 94.0853
lradius 98.3657
lwrist -8.24127
lhand -21.9135 18.2602
lfingers 7.12502
lthumb 4.49229 48.1925
rfemur -16.7918 -6.03343 13.8858
rtibia 61.8986
rfoot -6.14029 -6.2486
rtoes 10.0366
lfemur -4.82694 3.9485 -25.4652
ltibia 18.744
lfoot -9.09673 -2.92649
ltoes -4.10413
594
root 3.69747 17.9886 0.834417 176.644 223.143 184.754
lowerback 11.1551 1.2475 -4.49753
upperback 1.65321 1.05514 -0.578333
thorax -4.59677 0.577249 1.77287
lowerneck -15.37 -6.22177 -12.2681
upperneck 34.215 -9.54565 9.71363
head 15.8003 -4.541 4.51233
rclavicle 1.16227e-013 -5.86415e-015
rhumerus -39.2235 27.244 -99.204
rradius 98.9383
rwrist -7.27091
rhand -21.4088 15.2685
rfingers 7.12502
rthumb 4.97962 -14.6529
lclavicle 1.16227e-013 -5.86415e-015
lhumerus -38.3515 -34.6621 93.9045
lradius 98.4258
lwrist -8.10238
lhand -22.1284 18.3208
lfingers 7.12502
lthumb 4.28481 48.2574
rfemur -17.5712 -6.21667 14.0093
rtibia 61.403
rfoot -6.96162 -6.70533
rtoes 11.4555
lfemur -4.82176 4.00472 -25.5205
ltibia 19.3488
lfoot -9.37101 -2.65852
ltoes -3.82865
595
root 3.645 17.9808 0.906508 176.584 223.381 184.837
lowerback 10.7967 1.29988 -4.39162
upperback 2.04295 1.15714 -0.719171
thorax -3.9914 0.606384 1.56133
lowerneck -15.7419 -6.35457 -12.2178
upperneck 34.1045 -9.77341 9.9106
head 15.8835 -4.58899 4.53519
rclavicle -1.5002e-014 -6.16232e-015
rhumerus -38.3621 26.9394 -98.8702
rradius 98.9703
rwrist -7.3953
rhand -21.6933 15.1322
rfingers 7.12502
rthumb 4.70494 -14.7955
lclavicle -1.5002e-014 -6.16232e-015
lhumerus -37.1805 -35.5474 93.1069
lradius 98.446
lwrist -7.79009
lhand -22.2279 18.719
lfingers 7.12502
lthumb 4.18868 48.6576
rfemur -18.2963 -6.52694 14.0976
rtibia 60.7189
rfoot -7.52437 -7.36889
rtoes 11.7482
lfemur -4.84684 3.92552 -25.6247
ltibia 20.0346
lfoot -9.65693 -2.30577
ltoes -4.2884
596
root 3.59604 17.9633 0.973093 176.587 223.488 184.906
lowerback 10.8876 1.20471 -4.57324
upperback 2.04159 1.00802 -0.648428
thorax -4.03831 0.535978 1.75724
lowerneck -15.849 -6.30467 -12.3889
upperneck 34.2627 -9.67372 9.96608
head 15.988 -4.5634 4.61568
rclavicle -1.12835e-013 1.32689e-014
rhumerus -38.2246 27.0363 -98.7977
rradius 99.0358
rwrist -7.54421
rhand -22.0804 15.0605
rfingers 7.12502
rthumb 4.3311 -14.8752
lclavicle -1.12835e-013 1.32689e-014
lhumerus -36.9302 -35.69 92.9995
lradius 98.5344
lwrist -7.73123
lhand -22.1171 18.8419
lfingers 7.12502
lthumb 4.29569 48.7783
rfemur -19.1347 -7.05364 14.2865
rtibia 59.9263
rfoot -7.68648 -8.08262
rtoes 9.32219
lfemur -4.90402 3.81794 -25.7195
ltibia 20.696
lfoot -10.0795 -1.89128
ltoes -8.55391
